name GIL12_slow4.mot
datacolumns 153
datarows 4
range 1.30833340 1.33333337
endheader

                time	           pelvis_tx	           pelvis_ty	           pelvis_tz	         pelvis_tilt	         pelvis_list	     pelvis_rotation	       hip_flexion_r	     hip_adduction_r	      hip_rotation_r	        knee_angle_r	       ankle_angle_r	    subtalar_angle_r	         mtp_angle_r	       hip_flexion_l	     hip_adduction_l	      hip_rotation_l	        knee_angle_l	       ankle_angle_l	    subtalar_angle_l	         mtp_angle_l	    lumbar_extension	      lumbar_bending	     lumbar_rotation	     ground_force_vx	     ground_force_vy	     ground_force_vz	     ground_force_px	     ground_force_py	     ground_force_pz	     ground_force_vx	     ground_force_vy	     ground_force_vz	     ground_force_px	     ground_force_py	     ground_force_pz	     ground_torque_x	     ground_torque_y	     ground_torque_z	     ground_torque_x	     ground_torque_y	     ground_torque_z	    ground_marker_px	    ground_marker_py	    ground_marker_pz	    ground_marker_px	    ground_marker_py	    ground_marker_pz	    ground_marker_px	    ground_marker_py	    ground_marker_pz	    ground_marker_px	    ground_marker_py	    ground_marker_pz	    ground_marker_px	    ground_marker_py	    ground_marker_pz	    ground_marker_px	    ground_marker_py	    ground_marker_pz	    ground_marker_px	    ground_marker_py	    ground_marker_pz	    ground_marker_px	    ground_marker_py	    ground_marker_pz	    ground_marker_px	    ground_marker_py	    ground_marker_pz	    ground_marker_px	    ground_marker_py	    ground_marker_pz	    ground_marker_px	    ground_marker_py	    ground_marker_pz	    ground_marker_px	    ground_marker_py	    ground_marker_pz	    ground_marker_px	    ground_marker_py	    ground_marker_pz	    ground_marker_px	    ground_marker_py	    ground_marker_pz	    ground_marker_px	    ground_marker_py	    ground_marker_pz	    ground_marker_px	    ground_marker_py	    ground_marker_pz	    ground_marker_px	    ground_marker_py	    ground_marker_pz	    ground_marker_px	    ground_marker_py	    ground_marker_pz	    ground_marker_px	    ground_marker_py	    ground_marker_pz	    ground_marker_px	    ground_marker_py	    ground_marker_pz	    ground_marker_px	    ground_marker_py	    ground_marker_pz	    ground_marker_px	    ground_marker_py	    ground_marker_pz	    ground_marker_px	    ground_marker_py	    ground_marker_pz	    ground_marker_px	    ground_marker_py	    ground_marker_pz	    ground_marker_px	    ground_marker_py	    ground_marker_pz	    ground_marker_px	    ground_marker_py	    ground_marker_pz	    ground_marker_px	    ground_marker_py	    ground_marker_pz	    ground_marker_px	    ground_marker_py	    ground_marker_pz	    ground_marker_px	    ground_marker_py	    ground_marker_pz	    ground_marker_px	    ground_marker_py	    ground_marker_pz	    ground_marker_px	    ground_marker_py	    ground_marker_pz	    ground_marker_px	    ground_marker_py	    ground_marker_pz	    ground_marker_px	    ground_marker_py	    ground_marker_pz	    ground_marker_px	    ground_marker_py	    ground_marker_pz	    ground_marker_px	    ground_marker_py	    ground_marker_pz	    ground_marker_px	    ground_marker_py	    ground_marker_pz	    ground_marker_px	    ground_marker_py	    ground_marker_pz	
          1.30833340	         -0.88905621	          0.70170873	          0.23802468	          5.44532061	          1.06984675	         -2.78697157	         14.38998032	         -6.65678549	        -11.20249367	        -44.86584473	         11.51855755	          0.00000000	          0.00000000	         -5.86421442	          7.04968596	         -2.24595237	         -6.62650299	          6.80341911	          0.00000000	          0.00000000	        -24.69111633	         -4.55086422	          3.77019095	          0.00000000	          0.00000000	          0.00000000	         -1.22253943	          0.00000000	          0.23165909	          5.95233925	        250.68357941	          4.71519289	         -0.94939880	          0.00000000	          0.21362715	          0.00000000	          0.00000000	          0.00000000	          0.00000000	          0.14802893	          0.00000000	         -0.93657804	          0.62661308	          0.23805423	         -0.93543392	          0.63844973	          0.29366276	         -0.92951065	          0.63997376	          0.17637716	         -0.83565605	          0.35598290	          0.33006099	         -0.93358266	          0.34154263	          0.20919424	         -0.95865965	          0.09106606	          0.32408318	         -0.97058874	          0.05456781	          0.21961693	         -0.88905621	          0.70170873	          0.23802468	         -0.89358503	          0.70054346	          0.32769963	         -0.88452744	          0.70287400	          0.14834973	         -1.02552319	          0.71772277	          0.27639997	         -1.02039766	          0.71660250	          0.19241565	         -0.84808469	          0.35729715	          0.37433061	         -0.93310434	          0.33628973	          0.16148493	         -0.81885070	          0.35031176	          0.28798679	         -0.94251662	          0.34679261	          0.24687652	         -0.96854889	          0.09494083	          0.35585490	         -0.97901672	          0.05451462	          0.18822877	         -0.94852155	          0.09330388	          0.29832172	         -0.97505486	          0.05535094	          0.25356546	         -0.94796681	          1.03494537	          0.22901168	         -0.86156714	          0.96005261	          0.27308923	         -0.86493039	          0.95640236	          0.18359321	         -0.87626600	          0.97293890	          0.23605077	         -0.84763420	          0.83384192	          0.23540670	         -0.74396139	          0.48141405	          0.32527307	         -0.86533123	          0.41292825	          0.10061141	         -0.83351922	          0.50457156	          0.35149080	         -0.87283438	          0.47668606	          0.17563646	         -0.81501704	          0.41918510	          0.35943869	         -0.88217872	          0.39486563	          0.19926278	         -0.92491490	          0.15949054	          0.42876613	         -0.86726737	          0.15240262	          0.24128470	         -0.89833939	          0.22276750	          0.37017149	         -0.91865075	          0.21299613	          0.21622282	         -0.88134366	          0.06061284	          0.34985393	         -0.88755596	          0.03726276	          0.22282875	
          1.31666672	         -0.88471806	          0.70144647	          0.23833846	          5.73766851	          1.01606214	         -2.79630542	         14.73589134	         -6.35578918	        -10.99490547	        -43.49040985	         11.49658966	          0.00000000	          0.00000000	         -6.56484985	          7.04268074	         -1.79032660	         -6.75102520	          7.33711100	          0.00000000	          0.00000000	        -25.11512375	         -4.31202126	          3.44131088	          0.00000000	          0.00000000	          0.00000000	         -1.22046460	          0.00000000	          0.23140997	          5.49238402	        250.85092385	          5.02901830	         -0.94624689	          0.00000000	          0.21388881	          0.00000000	          0.00000000	          0.00000000	          0.00000000	          0.17156964	          0.00000000	         -0.93150401	          0.62606394	          0.23813406	         -0.93077582	          0.63800466	          0.29403415	         -0.92485350	          0.63944739	          0.17674747	         -0.82776892	          0.35668603	          0.32921243	         -0.93103999	          0.34119996	          0.20961292	         -0.94152820	          0.08762392	          0.32423928	         -0.97054303	          0.05450068	          0.21979254	         -0.88471806	          0.70144647	          0.23833846	         -0.88924545	          0.70034355	          0.32799888	         -0.88019073	          0.70254940	          0.14867803	         -1.02047992	          0.71665281	          0.27551007	         -1.01604760	          0.71569860	          0.19280742	         -0.83998656	          0.35775644	          0.37354735	         -0.93022197	          0.33592641	          0.16191050	         -0.81119311	          0.35146308	          0.28691891	         -0.93925488	          0.34648922	          0.24739595	         -0.95160532	          0.09129792	          0.35597578	         -0.97882867	          0.05452650	          0.18836649	         -0.93114591	          0.08996663	          0.29840598	         -0.97458130	          0.05510755	          0.25366685	         -0.94337398	          1.03437221	          0.22940214	         -0.85766906	          0.95924664	          0.27351719	         -0.86043149	          0.95574081	          0.18414196	         -0.87189937	          0.97226143	          0.23654917	         -0.84388471	          0.83304840	          0.23582058	         -0.73768109	          0.48327869	          0.32424268	         -0.86137575	          0.41255575	          0.10132667	         -0.82735527	          0.50535446	          0.35089508	         -0.86920065	          0.47613263	          0.17620321	         -0.80783784	          0.42021659	          0.35853073	         -0.87866306	          0.39449647	          0.19994909	         -0.91037023	          0.15764762	          0.42859197	         -0.86615711	          0.15146518	          0.24204773	         -0.88595784	          0.22149652	          0.36971048	         -0.91689616	          0.21254902	          0.21671116	         -0.86310554	          0.05989421	          0.35023358	         -0.88747120	          0.03722009	          0.22292760	
          1.32500005	         -0.88036323	          0.70115155	          0.23863196	          6.01867390	          0.96165729	         -2.77191257	         15.04892540	         -6.07434797	        -10.85669899	        -42.02103424	         11.34054947	          0.00000000	          0.00000000	         -7.25537491	          7.03507423	         -1.32834411	         -6.87607813	          7.86638689	          0.00000000	          0.00000000	        -25.53248978	         -4.25353193	          3.35643482	          0.00000000	          0.00000000	          0.00000000	         -1.21821912	          0.00000000	          0.23117261	          5.03443674	        251.14805660	          5.23837558	         -0.94297137	          0.00000000	          0.21418639	          0.00000000	          0.00000000	          0.00000000	          0.00000000	          0.19394647	          0.00000000	         -0.92645687	          0.62550521	          0.23822932	         -0.92607969	          0.63753450	          0.29440883	         -0.92022586	          0.63890070	          0.17711779	         -0.82005179	          0.35730582	          0.32838657	         -0.92850918	          0.34084812	          0.21002112	         -0.92413259	          0.08433767	          0.32430473	         -0.97050297	          0.05444071	          0.21995586	         -0.88036323	          0.70115155	          0.23863196	         -0.88483781	          0.70010722	          0.32828647	         -0.87588871	          0.70219588	          0.14897746	         -1.01546192	          0.71558481	          0.27475840	         -1.01174760	          0.71479434	          0.19329779	         -0.83208215	          0.35813642	          0.37277776	         -0.92737371	          0.33555147	          0.16232775	         -0.80370259	          0.35247245	          0.28603429	         -0.93583369	          0.34606498	          0.24796647	         -0.93441147	          0.08778294	          0.35600209	         -0.97864699	          0.05454345	          0.18849294	         -0.91359192	          0.08688822	          0.29780143	         -0.97448194	          0.05503159	          0.25380817	         -0.93878198	          1.03382576	          0.22985904	         -0.85332513	          0.95849836	          0.27412277	         -0.85599613	          0.95499259	          0.18472148	         -0.86745000	          0.97155172	          0.23711219	         -0.83981663	          0.83226281	          0.23643817	         -0.73151976	          0.48497361	          0.32331774	         -0.85747057	          0.41214305	          0.10199757	         -0.82130289	          0.50607640	          0.35033593	         -0.86552298	          0.47553068	          0.17673491	         -0.80081844	          0.42113295	          0.35775033	         -0.87506711	          0.39397821	          0.20062740	         -0.89574081	          0.15587948	          0.42832977	         -0.86502653	          0.15054879	          0.24280557	         -0.87353522	          0.22028172	          0.36921951	         -0.91522622	          0.21204840	          0.21722490	         -0.84479165	          0.05926832	          0.35048923	         -0.88736337	          0.03717568	          0.22302897	
          1.33333337	         -0.87598372	          0.70082450	          0.23890290	          6.28462124	          0.90665966	         -2.71413970	         15.33152199	         -5.81451130	        -10.78917408	        -40.46181107	         11.07123661	          0.00000000	          0.00000000	         -7.94032717	          7.02592707	         -0.86362398	         -6.98437977	          8.38142681	          0.00000000	          0.00000000	        -25.90227509	         -4.25890923	          3.36326003	          0.00000000	          0.00000000	          0.00000000	         -1.21574817	          0.00000000	          0.23096729	          4.69747674	        251.63424998	          5.33915099	         -0.93967090	          0.00000000	          0.21451930	          0.00000000	          0.00000000	          0.00000000	          0.00000000	          0.21123694	          0.00000000	         -0.92148507	          0.62494242	          0.23840988	         -0.92134202	          0.63704282	          0.29478416	         -0.91562343	          0.63833606	          0.17748563	         -0.81250238	          0.35782263	          0.32759178	         -0.92602932	          0.34048393	          0.21041714	         -0.90650403	          0.08122885	          0.32428619	         -0.97046328	          0.05438776	          0.22011133	         -0.87598372	          0.70082450	          0.23890290	         -0.88035470	          0.69983602	          0.32855868	         -0.87161279	          0.70181292	          0.14924711	         -1.01051867	          0.71453488	          0.27425492	         -1.00749481	          0.71389496	          0.19387667	         -0.82437152	          0.35841748	          0.37203014	         -0.92460221	          0.33516213	          0.16273440	         -0.79633909	          0.35339615	          0.28519741	         -0.93294877	          0.34601250	          0.24814077	         -0.91699195	          0.08441490	          0.35594216	         -0.97847569	          0.05456496	          0.18861501	         -0.89572787	          0.08417789	          0.29683873	         -0.97466803	          0.05510074	          0.25398368	         -0.93420786	          1.03325701	          0.23036683	         -0.84866422	          0.95780587	          0.27486941	         -0.85146505	          0.95424563	          0.18529089	         -0.86291480	          0.97081459	          0.23773800	         -0.83532774	          0.83153313	          0.23714556	         -0.72547144	          0.48648319	          0.32250747	         -0.85364926	          0.41167688	          0.10261571	         -0.81542492	          0.50670892	          0.34984708	         -0.86091745	          0.47511515	          0.17785408	         -0.79396212	          0.42191780	          0.35703653	         -0.87153339	          0.39341989	          0.20121107	         -0.88103807	          0.15417694	          0.42800233	         -0.86390036	          0.14964989	          0.24352795	         -0.86104608	          0.21909967	          0.36872965	         -0.91346872	          0.21146156	          0.21762395	         -0.82641977	          0.05876566	          0.35061920	         -0.88724107	          0.03712990	          0.22312884	
